PathFileType	4	(X/Y/Z)	..\data\2014050\dynamic\2014050_C4_04.trc
DataRate	CameraRate	NumFrames	NumMarkers	Units	OrigDataRate	OrigDataStartFrame	OrigNumFrames
100.000000	100.000000	4	52	mm	100.000000	41	165
Frame#	Time	L_IAS			L_IPS			R_IPS			R_IAS			L_FTC			L_FLE			L_FME			L_FAX			L_TTC			L_FAL			L_TAM			L_FCC			L_FM1			L_FM2			L_FM5			R_FTC			R_FLE			R_FME			R_FAX			R_TTC			R_FAL			R_TAM			R_FCC			R_FM1			R_FM2			R_FM5			CV7			TV10			SXS			SJN			L_SIA			L_SRS			L_SAA			L_SAE			L_HLE			L_HME			L_UOA			L_RSP			L_UHE			L_HM2			L_HM5			R_SIA			R_SRS			R_SAA			R_SAE			R_HLE			R_HME			R_UOA			R_RSP			R_UHE			R_HM2			R_HM5			
		X1	Y1	Z1	X2	Y2	Z2	X3	Y3	Z3	X4	Y4	Z4	X5	Y5	Z5	X6	Y6	Z6	X7	Y7	Z7	X8	Y8	Z8	X9	Y9	Z9	X10	Y10	Z10	X11	Y11	Z11	X12	Y12	Z12	X13	Y13	Z13	X14	Y14	Z14	X15	Y15	Z15	X16	Y16	Z16	X17	Y17	Z17	X18	Y18	Z18	X19	Y19	Z19	X20	Y20	Z20	X21	Y21	Z21	X22	Y22	Z22	X23	Y23	Z23	X24	Y24	Z24	X25	Y25	Z25	X26	Y26	Z26	X27	Y27	Z27	X28	Y28	Z28	X29	Y29	Z29	X30	Y30	Z30	X31	Y31	Z31	X32	Y32	Z32	X33	Y33	Z33	X34	Y34	Z34	X35	Y35	Z35	X36	Y36	Z36	X37	Y37	Z37	X38	Y38	Z38	X39	Y39	Z39	X40	Y40	Z40	X41	Y41	Z41	X42	Y42	Z42	X43	Y43	Z43	X44	Y44	Z44	X45	Y45	Z45	X46	Y46	Z46	X47	Y47	Z47	X48	Y48	Z48	X49	Y49	Z49	X50	Y50	Z50	X51	Y51	Z51	X52	Y52	Z52	

42	0.41	394.3613281250001	886.364929199219	-274.3509216308594	197.2927246093751	902.9975585937502	-219.8309326171876	202.0449218750001	904.2683715820315	-109.9359664916992	402.7627563476564	888.9010009765627	-66.03112792968751	347.2911682128907	801.5661621093752	-364.4078369140626	479.508514404297	446.8717041015626	-318.1589660644532	507.1320190429689	446.2202148437501	-185.8505401611328	452.0187988281251	388.0061950683595	-320.7556152343751	515.8302001953126	376.5274353027344	-271.0233764648438	404.9175415039064	84.74081420898439	-286.2917785644532	433.5317382812501	85.33009338378908	-204.0433654785157	364.8554077148438	34.05371856689454	-228.6761627197266	535.9468383789064	35.3028678894043	-230.6672973632813	534.0739135742189	52.51452255249025	-279.6213378906251	492.186492919922	30.26748275756837	-320.1682128906251	331.7105407714844	789.0317993164065	26.80229949951173	267.5753784179688	431.022918701172	-33.07168579101563	270.0349731445313	425.297332763672	-173.7996215820313	230.2664031982422	377.8554382324219	-29.76562309265137	293.2531738281251	364.7965393066407	-89.82382202148439	172.978744506836	60.25368499755861	-76.05944824218751	189.525634765625	75.45164489746095	-165.0969848632813	123.7033996582032	21.93048477172852	-122.7209777832032	302.3985900878907	11.5340518951416	-159.9039154052735	315.0190124511719	31.07986640930176	-104.1941528320313	274.7884521484376	13.8977746963501	-51.9687843322754	273.3961181640626	1379.122436523438	-167.5753326416016	191.1226348876953	1156.160522460938	-161.7703247070313	416.6558532714845	1058.50244140625	-180.2789001464844	382.4624023437501	1287.110717773438	-175.6979370117188	179.1373596191407	1197.98583984375	-244.0447998046876	218.0169219970704	1312.217407226563	-253.8517150878907	260.7445068359376	1324.578979492188	-322.4084167480469	304.4124145507813	1324.003540039063	-341.7098388671876	211.4998321533204	1040.428466796875	-408.2201538085939	178.4926452636719	1031.947875976563	-332.0525817871094	172.1401977539063	1015.640441894531	-384.549774169922	244.0592803955079	804.040710449219	-377.5332946777344	200.9541015625001	817.2286376953127	-432.8717346191407	248.6207427978516	721.7733154296876	-373.6133117675782	177.5459594726563	750.7751464843751	-432.1795349121095	190.6804504394532	1210.22509765625	-79.08995819091798	231.8752593994141	1314.471801757813	-78.8110809326172	283.6588134765626	1322.359741210938	-12.38523960113526	338.1557617187501	1327.902465820313	-11.76071739196778	348.9394531250001	1031.875122070313	89.97289276123048	319.5194091796876	1003.321899414063	20.09149360656739	331.1557006835938	984.7915649414065	69.70534515380861	516.0156860351564	862.6685791015627	74.89976501464845	456.1313476562501	836.9523925781252	109.3449630737305	569.2299194335939	799.367126464844	81.65650177001955	482.8992614746095	763.6438598632814	108.4327468872071	
43	0.42	405.5536499023439	885.1251220703127	-275.0321960449219	208.013412475586	901.4912719726565	-220.3032531738282	212.6431732177735	902.7618408203127	-110.5860671997071	413.1618652343751	887.1618652343752	-66.30627441406251	358.3031921386719	800.622009277344	-364.8042907714844	492.8687744140626	446.3148193359376	-317.6250610351563	518.0682983398439	445.7955627441407	-184.8407592773438	468.4857788085939	386.0111389160157	-320.6284790039063	532.2144775390626	377.8584899902344	-269.9530944824219	440.8823852539064	80.34822082519533	-286.7248535156251	468.2003173828126	82.81813049316408	-204.1092224121094	403.2886962890626	27.22957229614259	-229.5511932373047	573.8676147460939	39.0675392150879	-228.8144073486329	571.8851928710939	56.08250045776369	-277.8865051269532	532.1414184570314	31.19424629211426	-319.0105895996094	341.2456970214844	787.9069824218752	26.5110092163086	273.0012817382813	430.7547912597657	-33.39848327636719	276.2492065429688	424.8878784179689	-174.0228118896485	234.7535400390626	378.0778808593751	-30.17574310302735	297.9086914062501	364.0231933593751	-89.83888244628908	173.2746124267578	61.09848785400392	-76.34607696533205	190.5580596923828	76.06755828857423	-165.41015625	123.9481353759766	23.25919723510743	-123.1612930297852	302.4318847656251	11.56170177459717	-159.9896087646485	315.0198669433594	30.99766731262208	-104.250961303711	274.6604614257813	13.90955066680909	-52.12350463867189	284.8514404296876	1377.886840820313	-167.8892059326172	202.1982421875001	1155.118408203125	-161.8190002441407	427.130828857422	1056.914916992188	-180.7878570556641	393.9493408203126	1285.643676757813	-176.612045288086	190.2238311767578	1196.567626953125	-243.6462097167969	229.122055053711	1310.93212890625	-253.8018493652344	271.5709533691407	1323.145141601563	-322.5022277832032	315.0110473632813	1322.429809570313	-342.1508178710938	218.4508209228516	1039.89892578125	-407.5610656738282	186.12060546875	1031.836669921875	-331.0475769042969	179.03125	1015.662719726563	-383.5286865234376	247.9653472900391	803.1229248046877	-377.0281982421876	204.6658935546876	816.9020996093752	-432.0453186035157	251.027084350586	720.6370849609376	-372.8764648437501	180.2242279052735	750.8674316406251	-431.1264038085939	202.3498992919922	1209.251098632813	-78.85681915283205	243.4588470458985	1313.616455078125	-78.75359344482423	295.7066040039063	1321.218139648438	-12.53564643859864	350.2943115234376	1326.61376953125	-12.39414978027344	364.8137512207032	1031.274536132813	90.3334197998047	334.9587097167969	1001.966796875	20.71351623535157	347.4068603515626	983.5969848632815	70.32312774658205	535.3746948242189	866.0965576171877	73.10231781005861	476.6006774902345	838.685974121094	107.8778915405274	590.4155883789064	804.3981933593752	79.22898101806642	505.2147216796876	766.0202026367189	106.3136901855469	
44	0.43	416.8512573242189	883.9817504882815	-275.7727661132813	218.8473205566407	899.896911621094	-220.8897094726563	223.3189849853516	901.197937011719	-111.4107971191407	423.6296997070314	885.6384887695315	-66.6487274169922	369.1671752929688	799.5313720703127	-365.2618408203126	505.6539306640626	445.5547180175782	-317.2975463867188	528.2740478515626	444.9005126953126	-183.9446868896485	484.3556518554689	384.1416931152345	-320.5955505371094	547.9628295898439	379.0972290039063	-269.1829833984376	476.1069335937501	77.0632781982422	-287.1952819824219	502.0204162597657	81.32491302490236	-204.2454071044922	440.9657287597657	21.70279502868653	-230.4391784667969	610.5118408203126	43.72770309448243	-226.9500885009766	608.4983520507814	60.53258132934572	-276.1302795410157	571.0091552734376	33.16074752807618	-317.8340759277344	350.7923889160157	786.9375000000002	26.17596817016602	278.7699890136719	430.5550842285157	-33.76769256591798	282.8570861816407	424.5738220214845	-174.2574615478516	239.5839385986329	378.4109497070313	-30.62763786315919	302.9036560058594	363.3381347656251	-89.8677444458008	173.6446533203125	62.13948822021486	-76.61561584472658	191.681625366211	76.90727996826173	-165.7239227294922	124.2163467407227	24.89689445495606	-123.5917129516602	302.4664001464844	11.62152099609375	-160.0771636962891	315.0079956054688	30.92077445983887	-104.3109588623047	274.5190734863282	13.95659732818604	-52.29280090332033	296.3280944824219	1376.640502929688	-168.2827606201172	213.2745819091797	1154.057250976563	-161.9993896484375	437.5857543945314	1055.297241210938	-181.3703155517578	405.4458618164064	1284.078002929688	-177.5059356689453	201.3479766845704	1195.159057617188	-243.377426147461	240.3090820312501	1309.640014648438	-253.8668060302735	282.4930419921876	1321.716430664063	-322.6890563964844	325.7344360351563	1320.854858398438	-342.6589660644532	225.6152496337891	1039.358642578125	-406.9226074218751	194.0173950195313	1031.685424804688	-330.0238037109376	186.1837615966797	1015.638061523438	-382.5213623046876	252.2948760986329	802.2500000000002	-376.4973754882813	208.7572021484376	816.5850830078127	-431.1840820312501	253.9739990234376	719.5968017578126	-372.1600036621094	183.3604125976563	750.9561157226564	-430.0050048828126	214.0045166015626	1208.274291992188	-78.74369049072267	255.0496978759766	1312.7490234375	-78.79528808593751	307.7220458984376	1320.05859375	-12.79056644439698	362.4158020019532	1325.301147460938	-13.11999893188477	380.5084838867188	1030.629272460938	90.5980682373047	350.0823669433594	1000.631652832031	21.25834083557129	363.3131103515626	982.4425048828127	70.82175445556642	554.1763916015626	869.4409179687502	71.07704925537111	496.5649414062501	840.3989257812502	106.2027587890625	610.8981933593751	809.2805786132815	76.51441192626955	526.9271240234376	768.4261474609377	104.0168533325196	
45	0.44	428.2708740234376	882.9508056640627	-276.5482482910157	229.8275604248047	898.2410888671877	-221.6231536865235	234.0848388671876	899.6145019531252	-112.4281082153321	434.2044372558595	884.3679809570315	-67.04400634765626	379.9663696289063	798.302429199219	-365.7918701171876	517.9679565429689	444.6224975585939	-317.1766052246094	537.9217529296876	443.629852294922	-183.171142578125	499.6777648925782	382.4075622558594	-320.6537780761719	563.1196289062501	380.2323913574219	-268.6886901855469	510.1994018554689	74.81850433349611	-287.6757507324219	534.6530761718751	80.77314758300783	-204.429428100586	477.4466857910157	17.43009948730469	-231.3033905029297	645.5440063476564	49.0806007385254	-225.1024932861329	643.5579223632814	65.66661834716798	-274.3829650878907	608.3666992187501	35.98730468750001	-316.6473083496094	360.3782043457032	786.1500244140627	25.78751373291016	284.8804016113282	430.4416809082032	-34.16473388671876	289.8457946777344	424.3667602539064	-174.4949188232422	244.7628326416016	378.8743286132813	-31.09922981262208	308.2329711914063	362.7557983398438	-89.9046096801758	174.1034088134766	63.39908599853517	-76.83754730224611	192.8887176513672	77.99953460693361	-166.0088653564453	124.5112457275391	26.86377525329591	-123.9738998413086	302.5068969726563	11.71862316131592	-160.15966796875	314.9913024902344	30.85852241516114	-104.3635864257813	274.3774108886719	14.04575347900391	-52.46335220336915	307.8164672851563	1375.400390625	-168.7677307128907	224.3618164062501	1152.986572265625	-162.3144989013672	448.062957763672	1053.680297851563	-182.0310211181641	416.9488525390626	1282.4501953125	-178.3863677978516	212.4832763671876	1193.784912109375	-243.2488098144532	251.5709686279297	1308.351318359375	-254.0554962158204	293.4917297363282	1320.313232421875	-322.9822387695313	336.5805664062501	1319.300903320313	-343.2420959472657	233.0168609619141	1038.814819335938	-406.3178100585939	202.2059631347657	1031.501098632813	-329.0013732910157	193.6187286376954	1015.573669433594	-381.5450134277344	257.0651550292969	801.4226684570315	-375.9491271972657	213.2554016113282	816.2779541015627	-430.3031311035157	257.4853210449219	718.6576538085939	-371.4692382812501	186.9797973632813	751.0386962890626	-428.8312072753907	225.6356811523438	1207.306640625	-78.76192474365236	266.6481628417969	1311.876220703125	-78.95076751708986	319.6910400390626	1318.897583007813	-13.16348266601563	374.5120239257813	1323.985107421875	-13.94577598571778	395.967742919922	1029.955444335938	90.75587463378908	364.8597412109376	999.336364746094	21.71288490295411	378.8363037109376	981.3437500000002	71.1848602294922	572.3956909179689	872.6909790039065	68.84998321533205	515.9663696289064	842.090515136719	104.3314666748047	630.6442871093751	814.0007324218752	73.54156494140626	547.9871826171876	770.845886230469	101.5477752685547	
